<?xml version="1.0" encoding="UTF-8" standalone="no"?>
<!DOCTYPE svg PUBLIC "-//W3C//DTD SVG 1.1//EN" "http://www.w3.org/Graphics/SVG/1.1/DTD/svg11.dtd">
<svg width="100%" height="100%" viewBox="0 0 76 85" version="1.1" xmlns="http://www.w3.org/2000/svg" xmlns:xlink="http://www.w3.org/1999/xlink" xml:space="preserve" xmlns:serif="http://www.serif.com/" style="fill-rule:evenodd;clip-rule:evenodd;stroke-linejoin:round;stroke-miterlimit:2;">
    <g transform="matrix(1,0,0,1,-364,-96)">
        <g transform="matrix(1,0,0,1,93,0)">
            <path d="M306.435,102.34C306.546,102.131 306.763,102 307,102C307.237,102 307.454,102.131 307.565,102.34L316.11,118.462L334.083,121.606C334.316,121.647 334.507,121.813 334.581,122.039C334.654,122.264 334.597,122.511 334.432,122.681L321.74,135.789L324.303,153.854C324.336,154.089 324.237,154.322 324.046,154.461C323.854,154.601 323.602,154.623 323.389,154.519L307,146.498L290.611,154.519C290.398,154.623 290.146,154.601 289.954,154.461C289.763,154.322 289.664,154.089 289.697,153.854L292.26,135.789L279.568,122.681C279.403,122.511 279.346,122.264 279.419,122.039C279.493,121.813 279.684,121.647 279.917,121.606L297.89,118.462L306.435,102.34Z" style="fill:rgb(233,233,233);"/>
            <clipPath id="_clip1">
                <path d="M306.435,102.34C306.546,102.131 306.763,102 307,102C307.237,102 307.454,102.131 307.565,102.34L316.11,118.462L334.083,121.606C334.316,121.647 334.507,121.813 334.581,122.039C334.654,122.264 334.597,122.511 334.432,122.681L321.74,135.789L324.303,153.854C324.336,154.089 324.237,154.322 324.046,154.461C323.854,154.601 323.602,154.623 323.389,154.519L307,146.498L290.611,154.519C290.398,154.623 290.146,154.601 289.954,154.461C289.763,154.322 289.664,154.089 289.697,153.854L292.26,135.789L279.568,122.681C279.403,122.511 279.346,122.264 279.419,122.039C279.493,121.813 279.684,121.647 279.917,121.606L297.89,118.462L306.435,102.34Z"/>
            </clipPath>
            <g clip-path="url(#_clip1)">
                <g transform="matrix(1,0,0,1,24.2882,-100.708)">
                    <rect x="234" y="199" width="60" height="60" style="fill:rgb(255,197,0);"/>
                </g>
            </g>
        </g>
    </g>
</svg>
